<svg id="svg" version="1.1" xmlns="http://www.w3.org/2000/svg" xmlns:xlink="http://www.w3.org/1999/xlink" width="400" height="400" viewBox="0, 0, 400,400"><g id="svgg"><path id="path0" d="M198.457 44.300 C 189.930 46.639,188.878 58.349,196.846 62.247 C 201.670 64.607,208.023 62.137,209.878 57.180 C 212.675 49.702,206.040 42.219,198.457 44.300 M119.242 72.535 C 111.904 74.037,109.117 82.901,114.173 88.659 C 117.603 92.566,124.661 92.502,128.248 88.532 C 134.432 81.687,128.242 70.692,119.242 72.535 M277.224 74.041 C 270.373 76.408,268.582 85.191,273.949 90.097 C 278.776 94.508,286.410 92.985,289.149 87.064 C 292.677 79.440,285.208 71.284,277.224 74.041 M190.741 89.672 C 174.092 91.764,158.830 98.145,146.051 108.356 C 140.852 112.511,140.208 116.931,144.373 119.873 C 147.091 121.794,149.664 121.339,153.470 118.266 C 180.370 96.546,218.600 95.870,245.940 116.631 C 251.216 120.638,251.414 120.757,253.057 120.915 C 257.950 121.385,261.361 116.534,259.231 112.134 C 257.484 108.523,243.268 99.299,233.488 95.429 C 220.236 90.186,204.023 88.003,190.741 89.672 M192.476 114.676 C 178.957 116.517,160.717 125.608,159.703 131.010 C 158.462 137.625,164.798 141.019,170.429 136.755 C 188.076 123.397,212.246 123.138,230.305 136.115 C 234.999 139.489,237.500 139.677,240.310 136.867 C 243.510 133.667,242.663 129.888,237.963 126.401 C 225.072 116.836,208.321 112.519,192.476 114.676 M122.981 139.778 C 119.150 141.518,112.643 156.456,110.662 168.056 C 110.373 169.753,110.085 171.307,110.023 171.508 C 109.944 171.765,109.144 171.614,107.340 171.000 C 77.467 160.839,45.335 180.429,40.415 211.801 L 40.040 214.189 37.744 215.427 C 12.121 229.248,20.217 267.758,49.363 270.691 C 55.748 271.333,340.956 270.923,344.136 270.267 C 371.506 264.618,385.618 235.876,373.077 211.326 C 363.504 192.588,340.778 184.217,321.331 192.266 C 318.481 193.446,318.842 193.542,317.610 191.281 C 312.369 181.658,304.225 173.747,294.486 168.818 L 291.396 167.254 291.042 165.494 C 289.345 157.049,284.716 144.598,282.318 142.030 C 277.839 137.233,270.494 142.743,273.339 148.765 C 275.279 152.873,276.406 155.667,277.634 159.414 C 279.193 164.168,279.415 163.694,275.815 163.292 C 274.192 163.111,271.415 162.963,269.644 162.963 L 266.425 162.963 266.213 162.114 C 264.164 153.929,259.190 150.328,254.908 153.931 C 252.547 155.918,252.297 158.150,253.994 162.110 L 255.211 164.948 252.374 165.961 C 250.814 166.518,248.378 167.529,246.961 168.209 C 243.915 169.670,244.246 169.615,244.015 168.697 C 243.386 166.190,240.052 164.395,237.367 165.118 C 233.714 166.101,232.226 169.494,233.642 173.611 C 234.503 176.115,234.441 176.460,232.880 177.834 C 229.801 180.544,225.182 186.626,222.550 191.435 L 221.241 193.827 218.876 193.828 C 200.995 193.838,185.767 207.145,181.932 226.114 C 181.835 226.592,181.284 226.950,179.866 227.458 C 177.335 228.363,175.602 229.361,173.140 231.329 L 171.125 232.940 169.654 231.609 C 167.883 230.005,165.317 228.499,162.809 227.591 L 160.957 226.921 160.743 225.420 C 160.625 224.595,160.442 223.453,160.336 222.882 L 160.144 221.845 159.592 222.875 C 157.595 226.599,153.379 226.938,149.790 223.664 C 141.116 215.750,132.716 199.806,132.716 191.255 C 132.716 190.509,137.488 188.868,138.263 189.347 C 138.408 189.436,138.577 189.363,138.637 189.182 C 138.697 189.002,139.264 188.828,139.896 188.795 C 140.529 188.762,141.047 188.630,141.048 188.503 C 141.049 188.376,141.316 188.272,141.641 188.272 C 143.192 188.272,143.260 188.100,143.037 184.759 C 142.553 177.511,144.334 169.020,147.781 162.146 C 150.771 156.183,147.837 150.974,142.324 152.458 C 136.285 154.085,130.074 176.219,132.275 188.272 C 132.392 188.912,132.194 188.781,131.105 187.500 C 128.534 184.473,125.442 181.418,123.044 179.535 L 120.609 177.623 120.809 175.193 C 121.455 167.322,124.643 157.183,128.827 149.693 C 130.743 146.262,131.026 145.265,130.566 143.558 C 129.934 141.211,127.445 139.211,125.154 139.211 C 124.645 139.211,123.667 139.466,122.981 139.778 M196.296 139.378 C 192.742 140.001,191.506 140.283,189.352 140.960 C 186.714 141.789,182.878 143.586,180.469 145.123 C 173.639 149.479,179.510 159.691,186.587 155.765 C 196.152 150.460,204.433 150.123,212.963 154.691 C 217.723 157.240,219.911 157.265,222.376 154.800 C 227.583 149.594,222.344 143.521,209.846 140.276 C 206.731 139.467,198.792 138.941,196.296 139.378 M75.401 145.925 C 65.026 149.637,67.318 164.614,78.265 164.639 C 86.670 164.657,91.009 154.773,85.347 148.505 C 82.962 145.866,78.675 144.754,75.401 145.925 M319.043 147.668 C 313.711 149.569,311.122 155.988,313.673 160.976 C 318.289 170.000,331.791 166.901,331.790 156.818 C 331.789 150.115,325.280 145.443,319.043 147.668 M160.031 165.851 C 157.249 167.138,155.027 172.971,154.707 179.823 L 154.547 183.258 159.141 182.221 C 161.667 181.651,163.908 181.247,164.120 181.323 C 164.333 181.400,164.506 181.262,164.506 181.019 C 164.506 180.764,164.691 180.646,164.941 180.742 C 165.430 180.929,165.589 180.514,165.899 178.245 C 166.015 177.399,166.512 175.601,167.005 174.251 C 168.047 171.395,168.102 170.380,167.311 168.637 C 166.123 166.021,162.588 164.668,160.031 165.851 M198.056 171.124 C 191.942 173.305,190.099 180.590,194.464 185.325 C 198.808 190.037,206.695 188.480,208.968 182.461 C 211.529 175.680,204.822 168.711,198.056 171.124 M120.472 184.212 C 121.508 203.485,129.860 221.190,143.368 232.753 C 148.353 237.021,148.639 241.529,144.071 243.860 C 141.023 245.416,139.097 244.558,133.499 239.152 C 118.579 224.744,110.537 206.987,109.399 185.939 L 109.198 182.217 114.553 181.423 C 117.498 180.987,119.990 180.613,120.091 180.593 C 120.193 180.572,120.364 182.201,120.472 184.212 M146.299 198.976 C 146.323 201.246,154.502 213.028,157.667 215.351 L 158.608 216.042 158.130 214.888 C 157.016 212.195,154.521 207.719,153.029 205.740 C 150.323 202.149,146.290 198.096,146.299 198.976 M90.634 216.247 C 92.202 216.991,93.275 218.567,93.450 220.380 C 94.036 226.483,85.849 228.384,83.473 222.697 C 81.728 218.521,86.455 214.264,90.634 216.247 M314.442 216.567 C 317.404 218.761,317.452 223.247,314.535 225.168 C 309.433 228.529,303.710 222.226,307.632 217.566 C 309.230 215.667,312.566 215.178,314.442 216.567 M34.691 282.222 L 33.642 283.272 33.642 297.983 C 33.642 307.810,33.751 312.899,33.971 313.310 C 34.740 314.746,42.640 319.520,43.976 319.356 C 45.446 319.176,54.795 314.255,55.897 313.082 L 56.636 312.296 56.730 298.509 C 56.861 279.363,58.093 281.176,44.954 281.174 L 35.741 281.173 34.691 282.222 M69.830 281.413 L 65.741 281.499 65.741 300.009 L 65.741 318.519 69.136 318.519 L 72.531 318.519 72.531 313.785 L 72.531 309.052 78.935 307.692 C 84.841 306.437,85.418 306.256,86.343 305.357 L 87.346 304.383 87.346 293.827 L 87.346 283.272 86.286 282.212 L 85.226 281.152 79.573 281.240 C 76.464 281.288,72.079 281.366,69.830 281.413 M95.988 298.796 L 95.988 316.420 97.037 317.469 L 98.086 318.519 106.914 318.519 L 115.741 318.519 115.741 315.432 L 115.741 312.346 109.105 312.346 L 102.469 312.346 102.469 307.099 L 102.469 301.852 108.488 301.852 L 114.506 301.852 114.506 298.765 L 114.506 295.679 108.488 295.679 L 102.469 295.679 102.469 291.512 L 102.469 287.346 109.105 287.346 L 115.741 287.346 115.741 284.259 L 115.741 281.173 105.864 281.173 L 95.988 281.173 95.988 298.796 M124.074 299.846 L 124.074 318.519 127.469 318.519 L 130.864 318.519 130.873 304.861 L 130.882 291.204 134.389 289.098 C 137.197 287.413,138.103 287.013,138.933 287.092 L 139.969 287.191 140.049 302.855 L 140.129 318.519 143.374 318.519 L 146.620 318.519 146.535 300.746 L 146.451 282.974 145.443 282.073 C 143.182 280.054,137.412 280.786,133.204 283.625 C 131.853 284.537,130.853 285.037,130.838 284.809 C 130.823 284.591,130.833 283.684,130.860 282.793 L 130.909 281.173 127.492 281.173 L 124.074 281.173 124.074 299.846 M165.432 299.846 L 165.432 318.519 168.827 318.519 L 172.222 318.519 172.222 310.031 L 172.222 301.543 177.315 301.543 L 182.407 301.543 182.407 310.031 L 182.407 318.519 185.648 318.519 L 188.889 318.519 188.889 299.846 L 188.889 281.173 185.648 281.173 L 182.407 281.173 182.407 288.117 L 182.407 295.062 177.315 295.062 L 172.222 295.062 172.222 288.117 L 172.222 281.173 168.827 281.173 L 165.432 281.173 165.432 299.846 M200.034 281.604 C 198.479 282.466,198.479 282.458,198.468 298.157 C 198.458 311.233,198.511 312.904,198.960 313.544 C 199.817 314.768,207.290 319.444,208.389 319.444 C 209.570 319.444,219.589 314.235,220.602 313.093 L 221.296 312.311 221.296 297.791 L 221.296 283.272 220.247 282.222 L 219.198 281.173 209.985 281.184 C 202.931 281.192,200.599 281.291,200.034 281.604 M234.645 281.404 L 230.556 281.499 230.556 300.009 L 230.556 318.519 233.929 318.519 L 237.303 318.519 237.334 311.667 C 237.351 307.899,237.406 304.775,237.457 304.724 C 237.507 304.674,238.163 304.555,238.913 304.461 L 240.278 304.289 242.978 307.580 L 245.679 310.871 245.679 314.695 L 245.679 318.519 248.814 318.519 L 251.948 318.519 251.757 313.433 C 251.536 307.550,251.449 307.294,248.683 304.414 L 246.844 302.498 247.727 302.301 C 252.139 301.314,252.217 301.111,252.098 290.923 L 252.006 282.973 250.998 282.073 L 249.990 281.173 244.362 281.240 C 241.267 281.277,236.894 281.351,234.645 281.404 M261.728 299.846 L 261.728 318.519 264.969 318.519 L 268.210 318.519 268.210 299.846 L 268.210 281.173 264.969 281.173 L 261.728 281.173 261.728 299.846 M276.543 284.259 L 276.543 287.346 283.025 287.346 C 286.590 287.346,289.506 287.396,289.506 287.458 C 289.506 287.520,286.520 293.645,282.870 301.070 C 276.326 314.382,276.235 314.595,276.235 316.543 L 276.235 318.519 287.191 318.519 L 298.148 318.519 298.148 315.432 L 298.148 312.346 291.204 312.346 C 287.384 312.346,284.259 312.281,284.259 312.201 C 284.259 312.049,287.138 306.096,293.636 292.808 C 297.294 285.328,297.531 284.733,297.531 283.009 L 297.531 281.173 287.037 281.173 L 276.543 281.173 276.543 284.259 M306.908 281.762 C 306.378 282.085,305.788 282.800,305.596 283.350 C 305.126 284.697,305.107 311.544,305.575 312.886 C 306.032 314.198,313.883 319.444,315.389 319.444 C 316.615 319.444,326.156 314.502,327.517 313.162 L 328.412 312.281 328.327 297.627 L 328.241 282.974 327.233 282.073 L 326.225 281.173 317.048 281.174 C 308.572 281.175,307.797 281.220,306.908 281.762 M337.654 299.846 L 337.654 318.519 340.895 318.519 L 344.136 318.519 344.136 304.964 L 344.136 291.410 347.686 289.223 C 350.310 287.607,351.517 287.037,352.315 287.037 L 353.395 287.037 353.395 302.778 L 353.395 318.519 356.790 318.519 L 360.185 318.519 360.185 301.379 C 360.185 279.992,360.524 281.173,354.382 281.173 C 350.715 281.173,349.957 281.409,346.759 283.543 L 344.290 285.192 344.199 283.182 L 344.108 281.173 340.881 281.173 L 337.654 281.173 337.654 299.846 M49.927 298.510 L 49.846 309.982 46.903 311.533 L 43.960 313.083 42.042 311.899 L 40.123 310.715 40.123 299.082 C 40.123 292.683,40.216 287.356,40.329 287.243 C 40.442 287.130,42.666 287.037,45.271 287.037 L 50.008 287.037 49.927 298.510 M80.864 293.764 L 80.864 300.490 77.238 301.374 C 75.243 301.861,73.368 302.322,73.071 302.400 C 72.567 302.532,72.531 302.020,72.531 294.789 L 72.531 287.037 76.698 287.037 L 80.864 287.037 80.864 293.764 M214.815 298.433 L 214.815 309.829 211.838 311.396 C 208.292 313.263,208.721 313.226,206.631 311.839 L 204.938 310.715 204.938 298.876 L 204.938 287.037 209.877 287.037 L 214.815 287.037 214.815 298.433 M245.609 292.199 L 245.694 297.207 244.838 297.402 C 244.367 297.510,242.637 297.930,240.993 298.336 C 239.350 298.742,237.857 299.074,237.676 299.074 C 237.453 299.074,237.346 297.118,237.346 293.047 L 237.346 287.019 241.435 287.105 L 245.525 287.191 245.609 292.199 M321.840 298.534 L 321.921 309.876 318.730 311.463 L 315.539 313.050 313.788 311.930 L 312.037 310.810 312.037 298.916 L 312.037 287.021 316.898 287.106 L 321.759 287.191 321.840 298.534 " stroke="none" fill="#8c8c8c" fill-rule="evenodd"></path><path id="path1" d="M0.000 200.000 L 0.000 400.000 200.000 400.000 L 400.000 400.000 400.000 200.000 L 400.000 0.000 200.000 0.000 L 0.000 0.000 0.000 200.000 M205.184 44.713 C 214.165 49.347,211.650 62.548,201.660 63.204 C 190.333 63.946,187.125 48.353,197.766 44.276 C 199.503 43.611,203.504 43.847,205.184 44.713 M125.496 73.235 C 134.899 78.037,131.210 92.108,120.679 91.612 C 110.193 91.118,107.911 76.727,117.703 72.846 C 119.950 71.955,123.320 72.123,125.496 73.235 M284.786 74.415 C 288.411 76.154,290.292 79.452,290.050 83.642 C 289.346 95.808,271.453 95.808,270.752 83.642 C 270.310 75.980,277.793 71.061,284.786 74.415 M211.883 89.656 C 227.359 91.720,241.195 97.357,253.553 106.633 C 260.197 111.621,261.398 114.121,259.074 118.125 C 256.621 122.349,252.769 122.226,247.222 117.746 C 220.621 96.263,180.877 96.366,154.095 117.989 C 149.250 121.901,146.741 122.240,143.661 119.400 C 140.097 116.115,140.934 112.251,146.103 108.124 C 160.110 96.940,176.073 90.768,195.370 89.074 C 198.220 88.824,208.307 89.180,211.883 89.656 M206.173 114.215 C 220.450 115.519,239.450 124.150,241.845 130.420 C 243.959 135.958,237.349 141.260,232.539 137.884 C 231.873 137.416,230.216 136.254,228.858 135.301 C 212.241 123.640,188.211 123.924,171.759 135.976 C 166.834 139.584,164.512 139.884,161.560 137.292 C 156.161 132.551,160.181 126.764,173.336 120.338 C 183.513 115.368,195.110 113.205,206.173 114.215 M207.259 139.521 C 213.766 140.681,221.543 144.338,223.464 147.142 C 224.574 148.762,224.570 152.164,223.457 153.808 C 221.132 157.243,218.305 157.629,213.580 155.157 C 204.651 150.484,196.213 150.484,188.117 155.158 C 182.671 158.303,177.174 155.944,177.174 150.463 C 177.174 143.336,194.109 137.177,207.259 139.521 M128.583 140.299 C 131.434 142.607,131.576 145.151,129.098 149.537 C 126.218 154.633,123.551 161.628,122.234 167.541 C 121.664 170.099,120.575 177.502,120.752 177.616 C 123.191 179.192,128.170 183.773,130.582 186.662 L 131.944 188.294 131.953 181.878 C 131.972 166.962,137.437 152.716,143.329 152.228 C 148.569 151.793,150.747 156.347,147.998 161.994 C 142.742 172.794,141.757 185.639,145.378 196.164 C 145.882 197.629,146.531 198.486,149.306 201.352 C 153.635 205.822,156.937 210.866,158.460 215.336 L 158.928 216.711 157.848 215.763 C 156.593 214.660,156.667 214.670,154.250 215.296 C 153.229 215.561,152.202 215.704,151.968 215.614 C 151.734 215.525,151.543 215.560,151.543 215.693 C 151.543 215.825,150.157 216.256,148.464 216.650 C 146.417 217.125,145.454 217.481,145.591 217.711 C 145.705 217.900,145.575 217.875,145.303 217.655 C 145.023 217.428,144.732 217.377,144.632 217.538 C 144.401 217.912,150.321 224.150,151.738 225.025 C 154.528 226.750,158.995 225.074,159.763 222.015 C 160.031 220.949,160.401 221.615,160.644 223.596 C 161.022 226.680,161.074 226.793,162.289 227.181 C 164.253 227.808,167.437 229.604,169.421 231.202 L 171.331 232.742 172.811 231.417 C 174.744 229.687,177.673 227.981,179.933 227.268 C 181.723 226.704,181.744 226.683,181.949 225.322 C 184.484 208.470,200.169 194.717,218.104 193.620 L 221.297 193.425 222.663 190.920 C 224.784 187.028,227.641 183.194,231.089 179.612 L 234.245 176.333 233.485 173.583 C 231.744 167.288,236.086 162.841,241.367 165.509 C 242.588 166.126,243.160 166.743,244.299 168.674 C 244.592 169.169,244.790 169.125,246.786 168.120 C 247.978 167.519,250.266 166.576,251.869 166.024 C 253.472 165.472,254.832 164.985,254.890 164.941 C 254.948 164.897,254.497 163.699,253.887 162.279 C 251.482 156.680,253.481 152.623,258.643 152.623 C 262.044 152.623,263.182 153.788,265.482 159.623 L 266.798 162.963 271.130 162.985 C 273.513 162.998,276.188 163.111,277.075 163.238 L 278.687 163.467 278.501 162.675 C 277.935 160.271,275.944 154.900,274.317 151.389 C 272.216 146.856,271.983 145.387,273.039 143.343 C 274.780 139.974,279.858 139.105,282.342 141.752 C 284.794 144.365,291.332 162.258,291.363 166.444 C 291.367 166.999,291.882 167.378,294.064 168.432 C 303.464 172.973,311.453 180.480,317.018 190.000 L 318.840 193.117 321.464 192.064 C 341.356 184.076,363.902 192.682,373.606 211.967 C 385.131 234.871,372.027 263.383,347.068 269.709 C 341.819 271.040,345.332 271.012,193.056 270.916 L 46.759 270.823 44.599 270.166 C 39.859 268.726,37.050 267.354,33.944 264.964 C 16.676 251.677,18.779 225.594,37.962 215.129 C 39.780 214.137,39.978 213.932,40.063 212.958 C 42.764 182.111,77.274 160.584,107.529 170.875 C 110.088 171.745,109.769 171.997,110.352 168.649 C 111.989 159.250,117.994 143.691,121.110 140.772 C 123.151 138.861,126.540 138.646,128.583 140.299 M81.945 146.014 C 85.782 147.450,88.114 151.181,87.908 155.556 C 87.316 168.120,68.675 167.672,68.678 155.093 C 68.679 148.029,75.272 143.518,81.945 146.014 M326.424 147.888 C 332.647 150.811,333.947 158.963,328.961 163.797 C 322.959 169.616,312.627 165.325,312.561 156.986 C 312.505 149.693,319.914 144.830,326.424 147.888 M163.920 165.475 C 167.850 166.790,168.786 169.737,166.945 175.000 C 164.459 182.107,166.071 190.993,170.865 196.609 C 174.171 200.482,173.961 204.649,170.369 206.482 C 162.222 210.638,152.273 191.781,154.761 176.899 C 156.282 167.802,159.369 163.951,163.920 165.475 M203.012 170.786 C 209.821 172.553,211.964 181.246,206.746 185.937 C 200.744 191.334,191.468 186.791,192.045 178.737 C 192.443 173.173,197.652 169.396,203.012 170.786 M86.631 216.188 C 81.475 218.027,82.742 225.926,88.193 225.926 C 93.822 225.926,95.420 218.650,90.302 216.326 C 88.812 215.649,88.205 215.626,86.631 216.188 M310.159 216.036 C 304.970 217.608,305.535 225.239,310.885 225.842 C 313.576 226.145,315.620 224.807,316.390 222.238 C 317.491 218.564,313.832 214.922,310.159 216.036 M129.249 216.842 C 129.152 216.938,128.539 217.064,127.885 217.121 C 127.232 217.178,125.656 217.383,124.383 217.577 C 123.110 217.770,121.512 217.993,120.833 218.071 C 119.813 218.189,119.056 218.314,118.260 218.495 C 118.081 218.536,120.391 222.577,122.155 225.309 C 127.344 233.340,136.664 243.136,140.095 244.164 C 144.030 245.343,147.996 241.364,146.909 237.327 C 146.629 236.287,145.628 235.133,141.217 230.764 C 136.243 225.837,132.351 221.167,130.463 217.861 C 129.788 216.678,129.584 216.507,129.249 216.842 M55.832 282.264 L 56.790 283.355 56.790 297.874 L 56.790 312.393 55.941 313.237 C 55.475 313.701,53.161 315.101,50.799 316.346 L 46.506 318.612 48.022 319.378 C 48.855 319.799,49.622 320.276,49.726 320.438 C 49.830 320.599,50.005 320.717,50.115 320.700 C 50.225 320.682,50.834 320.937,51.469 321.267 L 52.623 321.866 51.620 321.843 C 51.069 321.830,50.617 321.702,50.617 321.558 C 50.617 321.414,50.470 321.296,50.290 321.296 C 50.111 321.296,50.043 321.424,50.139 321.580 C 50.243 321.749,48.052 321.879,44.756 321.899 C 40.431 321.927,39.192 321.846,39.173 321.538 C 39.154 321.228,39.115 321.226,38.993 321.528 C 38.908 321.740,38.632 321.914,38.382 321.914 C 38.107 321.914,38.013 321.761,38.144 321.528 C 38.319 321.219,38.279 321.219,37.947 321.528 C 37.450 321.988,36.300 322.049,36.577 321.600 C 36.684 321.427,36.900 321.366,37.058 321.464 C 37.216 321.561,37.346 321.512,37.346 321.354 C 37.346 321.197,38.192 320.511,39.226 319.832 L 41.107 318.596 37.642 316.336 C 32.956 313.281,33.333 314.874,33.333 298.148 C 33.333 279.276,32.001 281.173,45.253 281.173 L 54.874 281.173 55.832 282.264 M86.044 281.655 C 87.594 282.740,87.654 283.198,87.653 293.889 C 87.652 307.011,88.363 305.816,79.409 307.732 C 76.220 308.414,73.368 309.046,73.071 309.136 C 72.580 309.286,72.531 309.867,72.531 315.550 L 72.531 321.799 69.676 321.862 C 68.106 321.897,66.613 321.789,66.358 321.623 C 65.956 321.359,65.882 318.677,65.800 301.246 L 65.704 281.173 75.530 281.173 C 83.935 281.173,85.456 281.243,86.044 281.655 M115.741 284.414 L 115.741 287.654 109.259 287.654 L 102.778 287.654 102.778 291.506 L 102.778 295.357 108.719 295.441 L 114.660 295.525 114.660 298.765 L 114.660 302.006 108.719 302.090 L 102.778 302.174 102.778 307.260 L 102.778 312.346 109.259 312.346 L 115.741 312.346 115.741 317.130 L 115.741 321.914 106.009 321.914 C 97.621 321.914,96.252 321.849,96.098 321.448 C 95.905 320.943,96.740 319.451,97.453 319.028 C 97.815 318.813,97.754 318.617,97.116 317.947 C 95.692 316.455,95.679 316.272,95.679 298.282 L 95.679 281.173 105.710 281.173 L 115.741 281.173 115.741 284.414 M130.927 283.024 L 131.019 284.875 132.870 283.625 C 136.409 281.235,136.612 281.173,140.841 281.173 C 147.281 281.173,146.910 279.973,146.912 300.802 C 146.914 318.200,146.774 321.736,146.095 321.475 C 145.866 321.388,145.679 321.450,145.679 321.615 C 145.679 322.001,141.044 321.998,140.432 321.612 C 140.032 321.359,139.956 319.023,139.871 304.332 L 139.773 287.346 138.673 287.346 C 137.861 287.346,136.696 287.880,134.219 289.390 L 130.864 291.435 130.864 306.674 L 130.864 321.914 127.469 321.914 L 124.074 321.914 124.074 301.543 L 124.074 281.173 127.454 281.173 L 130.835 281.173 130.927 283.024 M172.222 288.117 L 172.222 295.062 177.160 295.062 L 182.099 295.062 182.099 288.117 L 182.099 281.173 185.648 281.173 L 189.198 281.173 189.198 299.182 C 189.198 318.525,189.073 321.914,188.362 321.914 C 188.123 321.914,188.012 321.775,188.117 321.605 C 188.222 321.435,188.161 321.296,187.981 321.296 C 187.801 321.296,187.654 321.435,187.654 321.605 C 187.654 321.786,186.589 321.914,185.076 321.914 L 182.498 321.914 182.298 319.552 C 182.189 318.253,182.099 313.667,182.099 309.359 L 182.099 301.528 177.238 301.613 L 172.377 301.698 172.295 311.806 C 172.216 321.657,172.198 321.914,171.601 321.914 C 171.236 321.914,170.973 321.695,170.952 321.373 C 170.920 320.887,170.902 320.890,170.770 321.400 C 170.640 321.902,170.354 321.953,168.259 321.843 L 165.895 321.719 165.694 320.042 C 165.584 319.119,165.479 309.996,165.463 299.769 L 165.432 281.173 168.827 281.173 L 172.222 281.173 172.222 288.117 M219.995 281.655 C 221.597 282.777,221.605 282.858,221.605 297.968 L 221.605 312.016 220.682 313.067 C 220.174 313.645,218.751 314.641,217.518 315.281 C 216.286 315.921,214.394 316.931,213.314 317.527 L 211.349 318.611 213.854 319.980 C 215.231 320.733,216.358 321.493,216.358 321.669 C 216.358 321.862,216.174 321.836,215.895 321.605 C 215.588 321.350,215.432 321.334,215.432 321.559 C 215.432 321.795,213.281 321.893,208.333 321.883 C 204.429 321.876,201.235 321.827,201.235 321.774 C 201.235 321.722,202.207 321.021,203.395 320.216 C 206.064 318.409,206.168 318.769,202.236 316.204 C 197.760 313.283,198.135 315.010,198.225 297.737 L 198.302 282.974 199.310 282.073 L 200.318 281.173 209.813 281.173 C 217.917 281.173,219.408 281.243,219.995 281.655 M251.028 281.804 C 252.262 282.775,252.466 284.167,252.467 291.646 C 252.470 300.553,252.242 301.166,248.527 302.261 L 247.209 302.650 249.189 304.848 C 251.814 307.762,252.256 310.273,251.908 320.293 L 251.852 321.914 248.812 321.914 L 245.773 321.914 245.557 316.313 L 245.340 310.713 242.688 307.517 C 241.229 305.759,239.951 304.322,239.848 304.323 C 239.745 304.324,239.140 304.469,238.503 304.646 L 237.346 304.967 237.346 311.079 C 237.346 314.441,237.255 318.259,237.145 319.564 L 236.944 321.937 233.750 321.890 L 230.556 321.843 230.556 301.508 L 230.556 281.173 240.390 281.173 C 249.831 281.173,250.258 281.198,251.028 281.804 M268.519 299.182 C 268.519 309.087,268.429 318.253,268.319 319.552 L 268.119 321.914 264.969 321.914 L 261.819 321.914 261.619 319.552 C 261.510 318.253,261.420 309.087,261.420 299.182 L 261.420 281.173 264.969 281.173 L 268.519 281.173 268.519 299.182 M297.531 283.199 C 297.531 285.210,297.482 285.325,291.049 298.471 C 287.485 305.757,284.568 311.859,284.568 312.032 C 284.568 312.235,286.959 312.346,291.358 312.346 L 298.148 312.346 298.148 314.768 C 298.148 316.101,298.059 318.249,297.949 319.542 L 297.751 321.893 287.070 321.826 L 276.389 321.759 276.303 318.015 L 276.216 314.271 282.707 301.070 C 286.277 293.809,289.198 287.751,289.198 287.607 C 289.198 287.463,286.350 287.346,282.870 287.346 L 276.543 287.346 276.543 284.259 L 276.543 281.173 287.037 281.173 L 297.531 281.173 297.531 283.199 M327.466 282.049 C 328.705 283.288,328.749 283.914,328.643 298.991 L 328.549 312.334 327.623 313.237 C 327.114 313.734,325.448 314.798,323.920 315.601 C 322.392 316.405,320.537 317.404,319.797 317.823 L 318.451 318.584 319.797 319.379 C 320.537 319.816,321.189 320.288,321.245 320.428 C 321.302 320.568,321.455 320.617,321.585 320.537 C 321.715 320.457,322.286 320.733,322.853 321.152 C 323.421 321.571,323.765 321.914,323.618 321.914 C 323.471 321.914,323.077 321.671,322.742 321.373 C 322.153 320.852,322.144 320.855,322.473 321.482 C 322.782 322.073,322.742 322.118,322.026 321.981 C 321.450 321.871,321.350 321.760,321.654 321.568 C 321.934 321.390,321.949 321.304,321.700 321.301 C 321.498 321.298,321.247 321.435,321.142 321.605 C 320.866 322.052,311.334 322.013,310.884 321.563 C 310.622 321.301,310.405 321.341,310.029 321.717 C 309.461 322.285,309.120 322.388,309.421 321.901 C 309.549 321.694,309.309 321.642,308.745 321.754 L 307.870 321.928 308.642 321.564 C 309.066 321.364,309.518 321.222,309.645 321.248 C 309.772 321.275,309.842 321.123,309.799 320.910 C 309.757 320.698,309.964 320.544,310.259 320.567 C 310.554 320.590,310.727 320.498,310.643 320.362 C 310.559 320.226,310.977 319.813,311.572 319.446 C 313.005 318.560,313.053 318.636,309.684 316.512 C 308.068 315.494,306.408 314.268,305.996 313.788 L 305.247 312.916 305.247 298.135 L 305.247 283.355 306.205 282.264 L 307.163 281.173 316.877 281.173 L 326.591 281.173 327.466 282.049 M344.444 283.027 L 344.444 284.881 347.113 283.104 L 349.781 281.327 354.006 281.228 L 358.230 281.128 359.208 282.241 L 360.185 283.355 360.185 302.634 L 360.185 321.914 356.790 321.914 L 353.395 321.914 353.395 304.630 L 353.395 287.346 352.182 287.346 C 351.225 287.346,350.285 287.771,347.730 289.360 L 344.491 291.374 344.391 306.346 C 344.275 323.617,344.683 321.954,340.586 321.838 L 337.809 321.759 337.608 320.062 C 337.497 319.128,337.393 309.996,337.376 299.769 L 337.346 281.173 340.895 281.173 L 344.444 281.173 344.444 283.027 M40.432 299.030 L 40.432 310.715 42.144 311.852 L 43.857 312.989 46.927 311.356 L 49.997 309.722 49.998 298.534 L 50.000 287.346 45.216 287.346 L 40.432 287.346 40.432 299.030 M72.531 294.753 C 72.531 301.605,72.571 302.160,73.071 302.153 C 73.368 302.148,75.139 301.758,77.006 301.285 L 80.401 300.425 80.485 293.885 L 80.568 287.346 76.549 287.346 L 72.531 287.346 72.531 294.753 M205.247 299.030 L 205.247 310.715 206.922 311.827 L 208.597 312.940 211.552 311.384 L 214.506 309.829 214.506 298.587 L 214.506 287.346 209.877 287.346 L 205.247 287.346 205.247 299.030 M237.346 293.182 L 237.346 299.018 238.966 298.635 C 239.857 298.424,241.663 297.994,242.978 297.680 L 245.370 297.109 245.370 292.228 L 245.370 287.346 241.358 287.346 L 237.346 287.346 237.346 293.182 M312.041 298.997 L 312.045 310.648 313.792 311.782 L 315.539 312.915 318.572 311.393 L 321.605 309.871 321.605 298.608 L 321.605 287.346 316.821 287.346 L 312.037 287.346 312.041 298.997 " stroke="none" fill="#fbfbfb" fill-rule="evenodd"></path><path id="path2" d="M210.572 53.549 C 210.575 54.228,210.638 54.470,210.712 54.086 C 210.786 53.702,210.783 53.146,210.706 52.851 C 210.629 52.556,210.568 52.870,210.572 53.549 M200.386 89.102 C 200.683 89.179,201.169 89.179,201.466 89.102 C 201.763 89.024,201.520 88.960,200.926 88.960 C 200.332 88.960,200.089 89.024,200.386 89.102 M279.865 92.811 C 280.249 92.885,280.804 92.882,281.099 92.805 C 281.394 92.727,281.080 92.667,280.401 92.670 C 279.722 92.674,279.481 92.737,279.865 92.811 M321.682 147.126 C 321.979 147.204,322.465 147.204,322.762 147.126 C 323.059 147.049,322.816 146.985,322.222 146.985 C 321.628 146.985,321.385 147.049,321.682 147.126 M331.868 156.636 C 331.871 157.315,331.935 157.556,332.008 157.172 C 332.082 156.788,332.079 156.233,332.002 155.938 C 331.925 155.643,331.865 155.957,331.868 156.636 M142.973 180.556 C 142.973 181.150,143.036 181.393,143.114 181.096 C 143.192 180.799,143.192 180.312,143.114 180.015 C 143.036 179.718,142.973 179.961,142.973 180.556 M154.380 181.481 C 154.164 187.861,157.127 197.796,159.222 197.720 C 159.751 197.701,160.184 197.597,160.184 197.489 C 160.185 197.381,160.813 197.198,161.580 197.083 C 162.347 196.968,162.896 196.746,162.799 196.589 C 162.702 196.432,162.832 196.384,163.088 196.482 C 163.344 196.580,164.539 196.436,165.744 196.162 C 166.950 195.888,168.067 195.745,168.227 195.844 C 168.387 195.943,168.519 195.877,168.519 195.697 C 168.519 195.517,168.738 195.370,169.007 195.370 C 169.276 195.370,169.448 195.266,169.390 195.139 C 169.332 195.012,168.756 193.885,168.109 192.634 C 166.593 189.707,165.737 186.334,165.656 182.973 C 165.620 181.502,165.502 180.443,165.392 180.620 C 165.282 180.798,165.038 180.848,164.849 180.731 C 164.655 180.611,164.506 180.723,164.506 180.991 C 164.506 181.250,164.333 181.400,164.120 181.323 C 163.908 181.247,161.692 181.646,159.196 182.209 L 154.657 183.233 154.548 181.508 L 154.438 179.784 154.380 181.481 M114.553 181.423 L 109.198 182.217 109.400 185.939 C 109.847 194.150,110.860 199.880,111.900 200.079 C 112.304 200.156,112.574 200.120,112.499 199.999 C 112.332 199.728,121.863 198.389,122.252 198.629 C 122.613 198.853,122.613 198.849,122.059 196.461 C 121.342 193.368,120.714 188.538,120.484 184.336 C 120.370 182.257,120.193 180.572,120.092 180.593 C 119.990 180.613,117.498 180.987,114.553 181.423 M142.979 184.105 C 142.982 184.784,143.046 185.025,143.120 184.641 C 143.193 184.258,143.191 183.702,143.113 183.407 C 143.036 183.112,142.976 183.426,142.979 184.105 M131.862 184.877 C 131.862 185.471,131.925 185.714,132.003 185.417 C 132.081 185.120,132.081 184.633,132.003 184.336 C 131.925 184.039,131.862 184.282,131.862 184.877 M142.901 187.969 C 142.647 188.130,142.126 188.264,141.744 188.267 C 141.362 188.269,141.049 188.376,141.048 188.503 C 141.047 188.630,140.529 188.762,139.896 188.795 C 139.264 188.828,138.697 189.002,138.637 189.182 C 138.577 189.363,138.408 189.436,138.263 189.347 C 137.488 188.868,132.716 190.509,132.716 191.255 C 132.716 193.456,135.794 204.321,136.418 204.321 C 136.569 204.321,136.778 204.182,136.883 204.012 C 137.163 203.560,137.731 203.635,137.465 204.090 C 137.341 204.302,137.507 204.248,137.833 203.970 C 138.159 203.691,138.912 203.370,139.506 203.255 C 140.100 203.139,141.731 202.768,143.131 202.429 C 144.530 202.090,145.813 201.898,145.982 202.003 C 146.160 202.113,146.211 201.989,146.103 201.708 C 145.947 201.301,146.046 201.272,146.712 201.525 C 147.623 201.872,147.619 201.850,146.187 198.733 C 145.220 196.626,144.174 192.900,143.710 189.903 C 143.421 188.044,143.288 187.725,142.901 187.969 M219.522 193.731 C 219.819 193.809,220.305 193.809,220.602 193.731 C 220.899 193.654,220.656 193.590,220.062 193.590 C 219.468 193.590,219.225 193.654,219.522 193.731 M365.572 259.028 L 364.352 260.340 365.664 259.119 C 366.883 257.985,367.117 257.716,366.884 257.716 C 366.833 257.716,366.243 258.306,365.572 259.028 M70.448 281.398 C 71.084 281.464,72.126 281.464,72.762 281.398 C 73.399 281.331,72.878 281.277,71.605 281.277 C 70.332 281.277,69.811 281.331,70.448 281.398 M188.964 299.758 L 188.889 318.498 185.571 318.597 L 182.253 318.696 185.581 318.762 C 188.008 318.809,188.948 318.723,189.056 318.441 C 189.137 318.229,189.166 309.722,189.121 299.537 L 189.038 281.019 188.964 299.758 M235.116 281.399 C 235.842 281.464,236.953 281.464,237.585 281.397 C 238.217 281.331,237.623 281.278,236.265 281.279 C 234.907 281.280,234.390 281.334,235.116 281.399 M198.291 298.148 C 198.291 306.042,198.330 309.271,198.379 305.324 C 198.428 301.377,198.428 294.919,198.379 290.972 C 198.330 287.025,198.291 290.255,198.291 298.148 M87.483 293.827 C 87.483 299.174,87.525 301.362,87.577 298.688 C 87.628 296.015,87.628 291.640,87.577 288.966 C 87.525 286.292,87.483 288.480,87.483 293.827 M221.438 297.840 C 221.438 305.394,221.478 308.484,221.527 304.707 C 221.577 300.930,221.577 294.749,221.527 290.972 C 221.478 287.195,221.438 290.285,221.438 297.840 M40.191 298.979 C 40.154 305.462,40.228 310.831,40.355 310.909 C 40.566 311.040,40.561 301.916,40.344 291.358 C 40.297 289.066,40.228 292.496,40.191 298.979 M102.591 291.512 C 102.591 293.889,102.640 294.820,102.699 293.582 C 102.757 292.344,102.757 290.400,102.698 289.261 C 102.638 288.123,102.590 289.136,102.591 291.512 M139.965 303.086 L 139.969 318.673 143.288 318.689 L 146.606 318.706 143.368 318.602 L 140.129 318.498 140.045 302.999 L 139.961 287.500 139.965 303.086 M245.496 292.284 C 245.496 295.085,245.543 296.231,245.600 294.830 C 245.657 293.430,245.657 291.138,245.600 289.738 C 245.543 288.337,245.496 289.483,245.496 292.284 M321.605 298.673 C 321.520 304.988,321.557 310.049,321.686 309.919 C 321.815 309.790,321.885 304.623,321.840 298.437 L 321.759 287.191 321.605 298.673 M102.596 307.099 C 102.596 310.069,102.642 311.285,102.699 309.799 C 102.756 308.314,102.756 305.883,102.699 304.398 C 102.642 302.913,102.596 304.128,102.596 307.099 M251.621 310.340 C 251.624 311.019,251.688 311.260,251.762 310.876 C 251.835 310.492,251.833 309.937,251.755 309.641 C 251.678 309.346,251.618 309.660,251.621 310.340 M245.442 311.728 C 245.442 312.323,245.505 312.566,245.583 312.269 C 245.661 311.971,245.661 311.485,245.583 311.188 C 245.505 310.891,245.442 311.134,245.442 311.728 M268.210 318.158 C 268.210 318.406,267.177 318.539,264.892 318.584 L 261.574 318.649 264.788 318.749 C 267.760 318.842,269.001 318.589,268.421 318.009 C 268.305 317.893,268.210 317.960,268.210 318.158 M344.136 318.158 C 344.136 318.406,343.103 318.539,340.818 318.584 L 337.500 318.649 340.714 318.749 C 343.685 318.842,344.927 318.589,344.347 318.009 C 344.231 317.893,344.136 317.960,344.136 318.158 M67.361 318.747 C 68.337 318.808,69.934 318.808,70.910 318.747 C 71.887 318.685,71.088 318.635,69.136 318.635 C 67.184 318.635,66.385 318.685,67.361 318.747 M103.028 318.749 C 105.457 318.802,109.346 318.801,111.670 318.749 C 113.994 318.697,112.006 318.654,107.253 318.654 C 102.500 318.654,100.599 318.697,103.028 318.749 M125.694 318.747 C 126.671 318.808,128.268 318.808,129.244 318.747 C 130.220 318.685,129.421 318.635,127.469 318.635 C 125.517 318.635,124.718 318.685,125.694 318.747 M167.052 318.747 C 168.029 318.808,169.626 318.808,170.602 318.747 C 171.578 318.685,170.779 318.635,168.827 318.635 C 166.875 318.635,166.076 318.685,167.052 318.747 M232.187 318.747 C 233.169 318.808,234.697 318.808,235.582 318.746 C 236.467 318.684,235.664 318.633,233.796 318.634 C 231.929 318.635,231.205 318.686,232.187 318.747 M247.145 318.746 C 248.036 318.808,249.495 318.808,250.386 318.746 C 251.277 318.684,250.548 318.633,248.765 318.633 C 246.983 318.633,246.254 318.684,247.145 318.746 M281.559 318.750 C 284.572 318.800,289.502 318.800,292.515 318.750 C 295.529 318.699,293.063 318.658,287.037 318.658 C 281.011 318.658,278.546 318.699,281.559 318.750 M355.015 318.747 C 355.992 318.808,357.589 318.808,358.565 318.747 C 359.541 318.685,358.742 318.635,356.790 318.635 C 354.838 318.635,354.039 318.685,355.015 318.747 " stroke="none" fill="#bcbcbc" fill-rule="evenodd"></path><path id="path3" d="M200.694 114.102 C 200.992 114.179,201.478 114.179,201.775 114.102 C 202.072 114.024,201.829 113.960,201.235 113.960 C 200.640 113.960,200.397 114.024,200.694 114.102 M169.059 195.304 C 168.762 195.365,168.519 195.553,168.519 195.720 C 168.519 195.887,168.387 195.943,168.227 195.844 C 168.067 195.745,166.950 195.888,165.744 196.162 C 164.539 196.436,163.344 196.580,163.088 196.482 C 162.832 196.384,162.702 196.432,162.799 196.589 C 162.896 196.746,162.347 196.968,161.580 197.083 C 160.813 197.198,160.185 197.424,160.185 197.584 C 160.185 197.745,160.045 197.789,159.874 197.683 C 158.854 197.053,158.305 197.859,158.963 199.020 C 160.131 201.082,160.381 201.316,161.039 200.965 C 161.421 200.760,161.760 200.752,161.987 200.943 C 162.182 201.106,162.266 201.140,162.175 201.018 C 161.965 200.736,170.807 198.766,171.598 198.918 C 172.327 199.059,172.138 198.352,171.144 197.222 C 170.771 196.798,170.270 196.167,170.032 195.821 C 169.794 195.475,169.356 195.242,169.059 195.304 M116.750 199.141 C 114.334 199.487,112.425 199.878,112.506 200.010 C 112.588 200.143,112.354 200.172,111.985 200.076 C 111.493 199.947,111.360 200.016,111.483 200.336 C 111.575 200.576,111.826 201.559,112.041 202.522 C 112.319 203.764,112.599 204.315,113.007 204.422 C 113.323 204.505,113.522 204.477,113.450 204.360 C 113.293 204.106,123.074 202.696,123.438 202.920 C 123.577 203.006,123.385 202.072,123.011 200.844 C 122.202 198.189,122.613 198.301,116.750 199.141 M146.114 201.736 C 146.213 201.995,146.156 202.110,145.982 202.003 C 145.813 201.898,144.530 202.090,143.131 202.429 C 141.731 202.768,140.100 203.139,139.506 203.255 C 138.912 203.370,138.159 203.691,137.833 203.970 C 137.507 204.248,137.341 204.302,137.465 204.090 C 137.744 203.613,137.284 203.580,136.820 204.044 C 136.573 204.292,136.644 204.779,137.085 205.839 L 137.689 207.293 142.378 206.105 C 144.958 205.452,147.412 204.844,147.833 204.755 C 148.876 204.533,148.871 204.587,147.991 203.013 C 147.259 201.703,145.692 200.638,146.114 201.736 M261.565 299.846 C 261.565 310.201,261.604 314.392,261.651 309.160 C 261.699 303.928,261.699 295.456,261.651 290.333 C 261.604 285.210,261.565 289.491,261.565 299.846 M268.355 299.537 C 268.355 309.722,268.394 313.844,268.441 308.697 C 268.489 303.550,268.489 295.216,268.441 290.178 C 268.394 285.140,268.355 289.352,268.355 299.537 M337.491 300.000 C 337.491 310.270,337.529 314.471,337.577 309.336 C 337.624 304.201,337.624 295.799,337.577 290.664 C 337.529 285.529,337.491 289.730,337.491 300.000 M344.277 291.436 C 344.195 291.648,344.165 297.447,344.210 304.321 L 344.291 316.821 344.445 303.935 C 344.529 296.848,344.560 291.049,344.512 291.049 C 344.464 291.049,344.358 291.223,344.277 291.436 M114.620 298.765 C 114.620 300.548,114.671 301.277,114.734 300.386 C 114.796 299.495,114.796 298.036,114.734 297.145 C 114.671 296.254,114.620 296.983,114.620 298.765 " stroke="none" fill="#c4c4c4" fill-rule="evenodd"></path><path id="path4" d="M196.991 89.102 C 197.288 89.179,197.774 89.179,198.071 89.102 C 198.368 89.024,198.125 88.960,197.531 88.960 C 196.937 88.960,196.694 89.024,196.991 89.102 M203.781 89.102 C 204.078 89.179,204.564 89.179,204.861 89.102 C 205.158 89.024,204.915 88.960,204.321 88.960 C 203.727 88.960,203.484 89.024,203.781 89.102 M197.917 114.102 C 198.214 114.179,198.700 114.179,198.997 114.102 C 199.294 114.024,199.051 113.960,198.457 113.960 C 197.863 113.960,197.620 114.024,197.917 114.102 M202.546 114.102 C 202.843 114.179,203.329 114.179,203.627 114.102 C 203.924 114.024,203.681 113.960,203.086 113.960 C 202.492 113.960,202.249 114.024,202.546 114.102 M259.948 114.815 C 259.948 115.409,260.012 115.652,260.089 115.355 C 260.167 115.058,260.167 114.572,260.089 114.275 C 260.012 113.978,259.948 114.221,259.948 114.815 M198.843 139.102 C 199.140 139.179,199.626 139.179,199.923 139.102 C 200.220 139.024,199.977 138.960,199.383 138.960 C 198.789 138.960,198.546 139.024,198.843 139.102 M201.620 139.102 C 201.917 139.179,202.404 139.179,202.701 139.102 C 202.998 139.024,202.755 138.960,202.160 138.960 C 201.566 138.960,201.323 139.024,201.620 139.102 M321.682 166.571 C 321.979 166.648,322.465 166.648,322.762 166.571 C 323.059 166.493,322.816 166.430,322.222 166.430 C 321.628 166.430,321.385 166.493,321.682 166.571 M200.386 170.583 C 200.683 170.661,201.169 170.661,201.466 170.583 C 201.763 170.505,201.520 170.442,200.926 170.442 C 200.332 170.442,200.089 170.505,200.386 170.583 M308.333 178.800 C 308.333 178.853,308.785 179.305,309.336 179.803 L 310.340 180.710 309.433 179.707 C 308.588 178.772,308.333 178.562,308.333 178.800 M127.315 183.333 C 128.151 184.182,128.904 184.877,128.989 184.877 C 129.074 184.877,128.459 184.182,127.623 183.333 C 126.787 182.485,126.034 181.790,125.949 181.790 C 125.864 181.790,126.479 182.485,127.315 183.333 M172.017 198.590 C 172.135 198.897,172.007 198.997,171.598 198.918 C 170.674 198.740,161.975 200.755,162.255 201.082 C 162.390 201.240,162.291 201.211,162.036 201.018 C 161.688 200.756,161.396 200.763,160.868 201.045 C 160.112 201.450,162.387 204.659,164.579 206.280 C 168.894 209.470,175.196 203.929,172.713 199.128 C 172.207 198.149,171.697 197.755,172.017 198.590 M117.644 203.506 C 115.211 203.869,113.332 204.278,113.468 204.415 C 113.604 204.551,113.477 204.571,113.185 204.459 C 112.266 204.106,113.410 207.903,116.121 214.198 C 116.961 216.150,117.720 217.920,117.808 218.131 C 117.910 218.381,118.308 218.453,118.937 218.339 C 119.471 218.241,120.324 218.117,120.833 218.063 C 121.343 218.009,122.940 217.788,124.383 217.571 C 125.826 217.355,127.353 217.154,127.778 217.125 C 129.942 216.978,130.010 216.822,128.805 214.765 C 127.414 212.392,126.119 209.587,124.696 205.864 C 123.370 202.395,123.898 202.571,117.644 203.506 M146.835 204.961 C 146.624 205.072,144.576 205.611,142.284 206.160 C 139.992 206.708,138.067 207.206,138.006 207.265 C 137.621 207.637,143.748 217.529,144.417 217.616 C 144.517 217.629,144.842 217.686,145.140 217.743 C 145.438 217.800,145.615 217.739,145.533 217.606 C 145.451 217.474,146.770 217.043,148.464 216.650 C 150.157 216.256,151.543 215.825,151.543 215.693 C 151.543 215.560,151.734 215.525,151.968 215.614 C 152.202 215.704,153.260 215.553,154.321 215.278 C 155.382 215.003,156.469 214.862,156.737 214.965 C 157.005 215.068,156.386 214.278,155.362 213.209 C 153.434 211.196,149.851 206.541,149.293 205.323 C 148.976 204.631,147.800 204.458,146.835 204.961 M30.695 220.448 L 29.475 221.759 30.787 220.539 C 31.508 219.868,32.099 219.278,32.099 219.227 C 32.099 218.994,31.830 219.228,30.695 220.448 M147.531 221.393 C 147.531 221.446,147.982 221.897,148.534 222.396 L 149.537 223.302 148.631 222.299 C 147.786 221.364,147.531 221.154,147.531 221.393 M95.823 298.457 C 95.823 308.048,95.862 311.971,95.910 307.176 C 95.958 302.380,95.958 294.533,95.910 289.738 C 95.862 284.942,95.823 288.866,95.823 298.457 M182.231 288.117 C 182.231 292.022,182.276 293.576,182.329 291.572 C 182.383 289.568,182.383 286.373,182.329 284.473 C 182.275 282.573,182.231 284.213,182.231 288.117 M344.235 283.025 C 344.235 284.128,344.291 284.579,344.359 284.028 C 344.428 283.476,344.428 282.573,344.359 282.022 C 344.291 281.470,344.235 281.921,344.235 283.025 M33.476 298.148 C 33.476 306.042,33.516 309.271,33.565 305.324 C 33.613 301.377,33.613 294.919,33.565 290.972 C 33.516 287.025,33.476 290.255,33.476 298.148 M146.749 301.389 C 146.749 310.895,146.788 314.829,146.836 310.130 C 146.884 305.431,146.884 297.654,146.836 292.846 C 146.788 288.038,146.749 291.883,146.749 301.389 M252.294 291.512 C 252.294 295.586,252.338 297.210,252.391 295.121 C 252.445 293.032,252.445 289.699,252.391 287.714 C 252.337 285.729,252.293 287.438,252.294 291.512 M328.537 297.994 C 328.537 305.633,328.577 308.714,328.626 304.840 C 328.675 300.967,328.675 294.717,328.626 290.951 C 328.577 287.186,328.537 290.355,328.537 297.994 M42.670 287.266 C 43.985 287.324,46.138 287.324,47.454 287.266 C 48.769 287.209,47.693 287.161,45.062 287.161 C 42.431 287.161,41.354 287.209,42.670 287.266 M76.709 287.263 L 80.579 287.364 80.490 293.976 C 80.441 297.612,80.508 300.480,80.639 300.349 C 80.770 300.218,80.839 297.204,80.793 293.651 L 80.710 287.191 76.774 287.177 L 72.839 287.163 76.709 287.263 M138.198 287.255 C 138.582 287.329,139.138 287.326,139.433 287.249 C 139.728 287.172,139.414 287.111,138.735 287.115 C 138.056 287.118,137.814 287.182,138.198 287.255 M205.082 287.416 C 204.999 287.633,204.969 293.019,205.015 299.384 L 205.100 310.957 205.174 299.151 L 205.247 287.346 209.873 287.346 L 214.499 287.346 214.585 298.534 L 214.672 309.722 214.666 298.457 L 214.660 287.191 209.947 287.106 C 206.340 287.041,205.198 287.114,205.082 287.416 M239.275 287.266 C 240.421 287.325,242.296 287.325,243.441 287.266 C 244.587 287.207,243.650 287.158,241.358 287.158 C 239.066 287.158,238.129 287.207,239.275 287.266 M314.583 287.266 C 315.899 287.324,318.052 287.324,319.367 287.266 C 320.683 287.209,319.606 287.161,316.975 287.161 C 314.344 287.161,313.268 287.209,314.583 287.266 M351.620 287.250 C 351.917 287.327,352.404 287.327,352.701 287.250 C 352.998 287.172,352.755 287.109,352.160 287.109 C 351.566 287.109,351.323 287.172,351.620 287.250 M105.941 287.576 C 107.766 287.631,110.752 287.631,112.577 287.576 C 114.402 287.521,112.909 287.477,109.259 287.477 C 105.610 287.477,104.117 287.521,105.941 287.576 M105.633 295.600 C 107.288 295.656,109.996 295.656,111.651 295.600 C 113.306 295.545,111.952 295.500,108.642 295.500 C 105.332 295.500,103.978 295.545,105.633 295.600 M105.633 302.082 C 107.288 302.137,109.996 302.137,111.651 302.082 C 113.306 302.026,111.952 301.981,108.642 301.981 C 105.332 301.981,103.978 302.026,105.633 302.082 M182.171 309.444 C 182.131 313.705,182.189 318.253,182.298 319.552 L 182.498 321.914 185.076 321.914 C 186.589 321.914,187.654 321.786,187.654 321.605 C 187.654 321.435,187.801 321.296,187.981 321.296 C 188.161 321.296,188.222 321.435,188.117 321.605 C 188.012 321.775,188.130 321.914,188.379 321.914 C 188.706 321.914,188.861 321.463,188.937 320.293 L 189.043 318.673 185.730 318.769 L 182.417 318.865 182.330 310.282 L 182.243 301.698 182.171 309.444 M245.442 314.198 C 245.442 314.792,245.505 315.035,245.583 314.738 C 245.661 314.441,245.661 313.954,245.583 313.657 C 245.505 313.360,245.442 313.603,245.442 314.198 M251.852 317.541 L 251.852 318.827 248.765 318.827 L 245.679 318.827 245.679 320.370 L 245.679 321.914 248.723 321.914 L 251.767 321.914 251.982 319.257 C 252.101 317.797,252.120 316.523,252.025 316.428 C 251.930 316.333,251.852 316.834,251.852 317.541 M97.654 318.469 C 97.763 318.645,97.663 318.902,97.432 319.040 C 96.736 319.454,95.907 320.951,96.098 321.448 C 96.252 321.849,97.621 321.914,106.009 321.914 L 115.741 321.914 115.741 320.370 L 115.741 318.827 107.233 318.827 C 101.637 318.827,98.508 318.711,98.091 318.488 C 97.682 318.269,97.527 318.262,97.654 318.469 M317.646 318.895 C 316.425 319.649,314.538 319.718,313.577 319.045 C 312.868 318.548,310.255 319.734,310.650 320.373 C 310.730 320.503,310.554 320.590,310.259 320.567 C 309.964 320.544,309.757 320.698,309.799 320.910 C 309.842 321.123,309.772 321.275,309.645 321.248 C 309.518 321.222,309.066 321.364,308.642 321.564 L 307.870 321.928 308.745 321.754 C 309.309 321.642,309.549 321.694,309.421 321.901 C 309.120 322.388,309.461 322.285,310.029 321.717 C 310.405 321.341,310.622 321.301,310.884 321.563 C 311.334 322.013,320.866 322.052,321.142 321.605 C 321.247 321.435,321.498 321.298,321.700 321.301 C 321.949 321.304,321.934 321.390,321.654 321.568 C 321.350 321.760,321.450 321.871,322.026 321.981 C 322.742 322.118,322.782 322.073,322.473 321.482 C 322.144 320.855,322.153 320.852,322.742 321.373 C 323.077 321.671,323.471 321.914,323.618 321.914 C 323.765 321.914,323.421 321.571,322.853 321.152 C 322.286 320.733,321.703 320.464,321.559 320.553 C 321.414 320.642,321.296 320.600,321.296 320.459 C 321.296 320.318,320.680 319.866,319.926 319.455 C 319.173 319.043,318.626 318.595,318.710 318.458 C 318.915 318.127,318.842 318.157,317.646 318.895 M39.214 319.840 C 38.186 320.515,37.346 321.197,37.346 321.354 C 37.346 321.512,37.216 321.561,37.058 321.464 C 36.900 321.366,36.684 321.427,36.577 321.600 C 36.300 322.049,37.450 321.988,37.947 321.528 C 38.279 321.219,38.319 321.219,38.144 321.528 C 38.013 321.761,38.107 321.914,38.382 321.914 C 38.632 321.914,38.908 321.740,38.993 321.528 C 39.115 321.226,39.154 321.228,39.173 321.538 C 39.192 321.846,40.431 321.927,44.756 321.899 C 48.052 321.879,50.243 321.749,50.139 321.580 C 50.043 321.424,50.111 321.296,50.290 321.296 C 50.470 321.296,50.617 321.414,50.617 321.558 C 50.617 321.702,51.069 321.830,51.620 321.843 L 52.623 321.866 51.469 321.267 C 50.834 320.937,50.225 320.682,50.115 320.700 C 50.005 320.717,49.830 320.599,49.726 320.438 C 49.622 320.276,48.856 319.799,48.023 319.378 L 46.508 318.613 45.045 319.231 L 43.582 319.849 42.332 319.230 L 41.082 318.612 39.214 319.840 M203.633 320.033 C 202.490 320.834,201.470 321.575,201.366 321.680 C 201.261 321.784,204.383 321.876,208.304 321.883 C 213.273 321.893,215.432 321.795,215.432 321.559 C 215.432 321.334,215.588 321.350,215.895 321.605 C 216.174 321.836,216.358 321.862,216.358 321.669 C 216.358 321.493,215.225 320.730,213.840 319.973 L 211.322 318.596 209.995 319.184 C 208.622 319.791,207.552 319.726,206.327 318.962 C 205.786 318.624,205.455 318.755,203.633 320.033 M261.680 320.293 L 261.786 321.914 264.969 321.914 L 268.153 321.914 268.258 320.293 L 268.364 318.673 264.969 318.673 L 261.574 318.673 261.680 320.293 M337.653 320.216 L 337.809 321.759 340.277 321.851 C 343.860 321.984,344.055 321.898,344.183 320.141 L 344.290 318.673 340.894 318.673 L 337.497 318.673 337.653 320.216 M66.049 320.195 C 66.049 321.879,66.298 321.987,69.908 321.874 L 72.531 321.791 72.531 320.309 L 72.531 318.827 69.290 318.827 L 66.049 318.827 66.049 320.195 M124.074 320.370 L 124.074 321.914 127.469 321.914 L 130.864 321.914 130.864 320.370 L 130.864 318.827 127.469 318.827 L 124.074 318.827 124.074 320.370 M140.123 320.183 C 140.123 321.135,140.269 321.595,140.612 321.726 C 141.412 322.033,145.679 321.939,145.679 321.615 C 145.679 321.450,145.887 321.396,146.142 321.493 C 146.512 321.635,146.605 321.386,146.605 320.249 L 146.605 318.827 143.364 318.827 L 140.123 318.827 140.123 320.183 M165.801 320.273 L 165.895 321.719 168.259 321.843 C 170.354 321.953,170.640 321.902,170.770 321.400 C 170.902 320.890,170.920 320.887,170.952 321.373 C 171.050 322.848,172.222 321.922,172.222 320.370 L 172.222 318.827 168.965 318.827 L 165.707 318.827 165.801 320.273 M230.556 320.335 L 230.556 321.843 233.796 321.891 L 237.037 321.938 237.037 320.383 L 237.037 318.827 233.796 318.827 L 230.556 318.827 230.556 320.335 M276.295 320.293 L 276.389 321.759 287.114 321.826 L 297.840 321.893 297.840 320.360 L 297.840 318.827 287.020 318.827 L 276.201 318.827 276.295 320.293 M353.395 320.370 L 353.395 321.914 356.790 321.914 L 360.185 321.914 360.185 320.370 L 360.185 318.827 356.790 318.827 L 353.395 318.827 353.395 320.370 " stroke="none" fill="#cccccc" fill-rule="evenodd"></path></g></svg>